<svg width="72" height="30" viewBox="0 0 72 30" fill="none" xmlns="http://www.w3.org/2000/svg">
<path d="M65.3338 13.8294L51.9834 0.479264C51.6747 0.170243 51.2625 0 50.823 0C50.3835 0 49.9713 0.170243 49.6625 0.479264L48.6793 1.46218C48.0396 2.10267 48.0396 3.14363 48.6793 3.78314L59.89 14.9938L48.6669 26.2169C48.3581 26.5259 48.1876 26.9378 48.1876 27.3771C48.1876 27.8168 48.3581 28.2288 48.6669 28.5381L49.65 29.5207C49.9591 29.8298 50.371 30 50.8105 30C51.25 30 51.6622 29.8298 51.971 29.5207L65.3338 16.1584C65.6433 15.8484 65.8133 15.4345 65.8124 14.9945C65.8133 14.5528 65.6433 14.1392 65.3338 13.8294Z" fill="#4E4E4E" fill-opacity="0.7"/>
<path d="M6.66618 13.8294L20.0166 0.479264C20.3253 0.170243 20.7375 0 21.177 0C21.6165 0 22.0287 0.170243 22.3375 0.479264L23.3207 1.46218C23.9604 2.10267 23.9604 3.14363 23.3207 3.78314L12.11 14.9938L23.3331 26.2169C23.6419 26.5259 23.8124 26.9378 23.8124 27.3771C23.8124 27.8168 23.6419 28.2288 23.3331 28.5381L22.35 29.5207C22.0409 29.8298 21.629 30 21.1895 30C20.75 30 20.3378 29.8298 20.029 29.5207L6.66618 16.1584C6.35667 15.8484 6.18667 15.4345 6.18764 14.9945C6.18667 14.5528 6.35667 14.1392 6.66618 13.8294Z" fill="#4E4E4E" fill-opacity="0.7"/>
</svg>
