<?xml version="1.0" standalone="no"?>
<!DOCTYPE svg PUBLIC "-//W3C//DTD SVG 20010904//EN"
 "http://www.w3.org/TR/2001/REC-SVG-20010904/DTD/svg10.dtd">
<svg version="1.0" xmlns="http://www.w3.org/2000/svg"
 width="600.000000pt" height="252.000000pt" viewBox="0 0 600.000000 252.000000"
 preserveAspectRatio="xMidYMid meet">
<metadata>
Created by potrace 1.16, written by Peter Selinger 2001-2019
</metadata>
<g transform="translate(0.000000,252.000000) scale(0.100000,-0.100000)"
fill="#11325A" stroke="none">
<path d="M2652 2152 l-32 -3 2 -902 3 -902 38 -3 37 -3 0 905 c0 498 -3 906
-7 908 -5 2 -23 2 -41 0z"/>
<path d="M863 2129 c-89 -44 -139 -130 -129 -218 15 -125 74 -170 374 -282
161 -60 239 -98 272 -133 20 -22 25 -39 28 -99 3 -49 9 -75 19 -80 8 -5 43
-31 79 -58 36 -27 68 -49 71 -49 3 0 4 60 1 133 -5 151 -18 192 -86 268 -49
54 -130 99 -297 162 -165 63 -253 101 -276 120 -25 22 -24 51 4 78 34 32 131
22 283 -29 282 -95 463 -223 553 -391 79 -149 100 -308 101 -743 l0 -268 -90
0 -90 0 0 -80 0 -80 280 0 280 0 0 80 0 80 -109 0 -109 0 -5 387 c-4 380 -5
390 -31 488 -31 118 -83 231 -133 295 -163 204 -354 321 -677 414 -117 34
-250 36 -313 5z"/>
<path d="M4620 1260 l0 -420 95 0 95 0 0 88 0 88 40 39 c25 25 44 36 48 29 4
-6 44 -63 90 -127 l84 -117 114 0 c63 0 114 3 114 8 0 4 -70 88 -155 187
l-155 180 116 116 117 117 -76 7 c-122 12 -138 5 -241 -93 l-91 -87 -3 203 -2
202 -95 0 -95 0 0 -420z"/>
<path d="M4227 1468 c-107 -14 -197 -82 -249 -187 -18 -37 -23 -63 -23 -131 0
-73 4 -93 28 -142 31 -64 95 -125 165 -160 65 -32 177 -32 245 -1 50 23 127
79 127 92 0 4 -25 29 -56 55 -50 43 -57 47 -72 33 -58 -51 -132 -60 -202 -24
-84 42 -113 140 -67 227 51 97 188 119 265 42 20 -20 20 -20 81 31 l62 50 -26
27 c-65 68 -172 102 -278 88z"/>
<path d="M3280 1453 c-29 -10 -68 -39 -107 -78 -49 -50 -65 -73 -78 -118 -49
-169 15 -326 162 -399 60 -29 76 -33 148 -32 65 0 92 6 139 27 32 15 60 27 62
27 2 0 4 -9 4 -20 0 -19 7 -20 90 -20 l90 0 0 305 0 305 -89 0 c-81 0 -89 -2
-94 -21 -5 -20 -6 -20 -53 7 -42 24 -60 29 -139 31 -64 2 -103 -2 -135 -14z
m170 -143 c41 -11 94 -61 109 -103 38 -100 -30 -213 -134 -225 -59 -6 -88 3
-131 40 -65 57 -80 127 -44 198 41 79 116 113 200 90z"/>
<path d="M793 1355 c-104 -29 -190 -91 -228 -165 -27 -52 -55 -179 -55 -250
l0 -67 43 41 c72 68 128 91 227 91 170 0 278 -60 335 -186 25 -56 27 -69 23
-158 -3 -70 -10 -109 -25 -143 l-22 -48 105 0 c220 0 456 101 521 224 26 48
23 178 -5 237 -33 66 -107 154 -187 222 -89 75 -281 171 -385 193 -109 23
-282 28 -347 9z"/>
<path d="M704 922 c-170 -61 -242 -252 -150 -404 59 -98 148 -144 261 -135 72
5 127 31 176 84 49 51 70 94 76 158 21 203 -176 364 -363 297z"/>
</g>
</svg>
