<svg width="30" height="36" viewBox="0 0 30 36" fill="none" xmlns="http://www.w3.org/2000/svg">
<path d="M27.5927 23.144C25.756 23.144 23.9526 22.8064 22.2436 22.1426C21.4062 21.8069 20.3767 22.1149 19.8657 22.7318L16.4925 25.7247C12.5805 23.2703 10.1708 20.4391 8.11115 15.8758L10.5826 12.0145C11.2247 11.2608 11.455 10.1599 11.1791 9.12686C10.6119 7.10769 10.3238 4.98907 10.3238 2.82941C10.3239 1.26926 9.24396 0 7.91662 0H2.40726C1.07992 0 0 1.26926 0 2.82932C0 20.7117 12.3779 35.2598 27.5927 35.2598C28.9201 35.2598 30 33.9905 30 32.4304V25.9732C29.9999 24.4133 28.92 23.144 27.5927 23.144Z" fill="#11325A"/>
</svg>
