<svg width="30" height="30" viewBox="0 0 30 30" fill="none" xmlns="http://www.w3.org/2000/svg">
<path d="M6.66618 13.8294L20.0166 0.479264C20.3253 0.170243 20.7375 0 21.177 0C21.6165 0 22.0287 0.170243 22.3375 0.479264L23.3207 1.46218C23.9604 2.10267 23.9604 3.14363 23.3207 3.78314L12.11 14.9938L23.3331 26.2169C23.6419 26.5259 23.8124 26.9378 23.8124 27.3771C23.8124 27.8168 23.6419 28.2288 23.3331 28.5381L22.35 29.5207C22.0409 29.8298 21.629 30 21.1895 30C20.75 30 20.3378 29.8298 20.029 29.5207L6.66618 16.1584C6.35667 15.8484 6.18667 15.4345 6.18764 14.9945C6.18667 14.5528 6.35667 14.1392 6.66618 13.8294Z" fill="#4E4E4E" fill-opacity="0.7"/>
</svg>
