<svg width="30" height="30" viewBox="0 0 30 30" fill="none" xmlns="http://www.w3.org/2000/svg">
<path d="M23.3338 13.8294L9.98346 0.479264C9.67468 0.170243 9.26249 0 8.82298 0C8.38347 0 7.97128 0.170243 7.6625 0.479264L6.67934 1.46218C6.03959 2.10267 6.03959 3.14363 6.67934 3.78314L17.89 14.9938L6.6669 26.2169C6.35812 26.5259 6.18764 26.9378 6.18764 27.3771C6.18764 27.8168 6.35812 28.2288 6.6669 28.5381L7.65006 29.5207C7.95909 29.8298 8.37103 30 8.81054 30C9.25005 30 9.66224 29.8298 9.97102 29.5207L23.3338 16.1584C23.6433 15.8484 23.8133 15.4345 23.8124 14.9945C23.8133 14.5528 23.6433 14.1392 23.3338 13.8294Z" fill="#4E4E4E" fill-opacity="0.7"/>
</svg>
